<svg width="58" height="58" viewBox="0 0 58 58" fill="none" xmlns="http://www.w3.org/2000/svg">
<rect width="58" height="58" rx="29" fill="white"/>
<path d="M29 29C29 27.1444 29.7371 25.3649 31.0492 24.0528C32.3613 22.7407 34.1409 22.0036 35.9965 22.0036C37.8521 22.0036 39.6318 22.7407 40.9439 24.0528C42.256 25.3649 42.9931 27.1444 42.9931 29C42.9931 30.8556 42.256 32.6351 40.9439 33.9472C39.6318 35.2593 37.8521 35.9964 35.9965 35.9964C34.1409 35.9964 32.3613 35.2593 31.0492 33.9472C29.7371 32.6351 29 30.8556 29 29Z" fill="#1ABCFE"/>
<path d="M15.007 42.9928C15.007 41.1373 15.7441 39.3577 17.0562 38.0456C18.3683 36.7335 20.1479 35.9964 22.0035 35.9964H29.0001V42.9928C29.0001 44.8484 28.2629 46.6279 26.9508 47.94C25.6387 49.2521 23.8591 49.9892 22.0035 49.9892C20.1479 49.9892 18.3683 49.2521 17.0562 47.94C15.7441 46.6279 15.007 44.8484 15.007 42.9928V42.9928Z" fill="#0ACF83"/>
<path d="M29 8.01077V22.0036H35.9965C37.8521 22.0036 39.6318 21.2665 40.9439 19.9544C42.256 18.6423 42.9931 16.8627 42.9931 15.0072C42.9931 13.1516 42.256 11.3721 40.9439 10.06C39.6318 8.74789 37.8521 8.01077 35.9965 8.01077H29Z" fill="#FF7262"/>
<path d="M15.007 15.0072C15.007 16.8627 15.7441 18.6423 17.0562 19.9544C18.3683 21.2665 20.1479 22.0036 22.0035 22.0036H29.0001V8.01077H22.0035C20.1479 8.01077 18.3683 8.74789 17.0562 10.06C15.7441 11.3721 15.007 13.1516 15.007 15.0072V15.0072Z" fill="#F24E1E"/>
<path d="M15.007 29C15.007 30.8556 15.7441 32.6351 17.0562 33.9472C18.3683 35.2593 20.1479 35.9964 22.0035 35.9964H29.0001V22.0036H22.0035C20.1479 22.0036 18.3683 22.7407 17.0562 24.0528C15.7441 25.3649 15.007 27.1444 15.007 29V29Z" fill="#A259FF"/>
</svg>
