<svg width="58" height="58" viewBox="0 0 58 58" fill="none" xmlns="http://www.w3.org/2000/svg">
<rect width="58" height="58" rx="29" fill="#333333"/>
<path d="M23.0262 56.6754C23.0262 56.0484 23.0035 54.3893 22.9906 52.1875C15.6493 53.7817 14.1004 48.6491 14.1004 48.6491C12.8998 45.6 11.1694 44.7882 11.1694 44.7882C8.77303 43.1519 11.3508 43.1843 11.3508 43.1843C13.9999 43.3706 15.3933 45.9045 15.3933 45.9045C17.7475 49.9371 21.5713 48.7722 23.0748 48.0966C23.3146 46.3922 23.9967 45.2289 24.7502 44.5695C18.8898 43.902 12.728 41.6387 12.728 31.5256C12.728 28.6434 13.7569 26.2893 15.4452 24.4439C15.173 23.7764 14.2672 21.0934 15.7044 17.4594C15.7044 17.4594 17.9192 16.7497 22.9614 20.1634C25.0661 19.5785 27.3247 19.2869 29.5687 19.2756C31.8111 19.2869 34.0681 19.5785 36.1761 20.1634C41.215 16.7497 43.4266 17.4594 43.4266 17.4594C44.867 21.0934 43.9613 23.7764 43.6907 24.4439C45.3822 26.2893 46.403 28.6434 46.403 31.5256C46.403 41.6646 40.2315 43.8955 34.3533 44.5485C35.2995 45.3634 36.1437 46.9738 36.1437 49.4365C36.1437 52.9636 36.1112 55.8102 36.1112 56.6754C36.1112 57.2726 36.4636 57.9522 37.3786 57.9921H21.6808C22.6577 57.9884 23.0262 57.2878 23.0262 56.6754Z" fill="white"/>
</svg>
