<svg width="58" height="58" viewBox="0 0 58 58" fill="none" xmlns="http://www.w3.org/2000/svg">
<g clip-path="url(#clip0_104_36)">
<path fill-rule="evenodd" clip-rule="evenodd" d="M0.679688 0.679688H57.3203V57.3203H0.679688V0.679688Z" fill="#F7DF1E"/>
<path fill-rule="evenodd" clip-rule="evenodd" d="M15.5726 48.0127L19.9071 45.3896C20.7433 46.8722 21.504 48.1266 23.3287 48.1266C25.0777 48.1266 26.1804 47.4425 26.1804 44.7813V26.6832H31.5032V44.8565C31.5032 50.3695 28.2716 52.8789 23.5569 52.8789C19.2988 52.8789 16.8271 50.6736 15.5725 48.0123" fill="#333333"/>
<path fill-rule="evenodd" clip-rule="evenodd" d="M34.3943 47.4424L38.7283 44.933C39.8692 46.7962 41.3521 48.1649 43.9753 48.1649C46.1808 48.1649 47.5872 47.0622 47.5872 45.5413C47.5872 43.7163 46.1425 43.0699 43.7091 42.0057L42.3788 41.435C38.5385 39.8004 35.991 37.7473 35.991 33.4128C35.991 29.4207 39.0326 26.3789 43.7854 26.3789C47.1692 26.3789 49.6025 27.5576 51.3513 30.6374L47.207 33.2987C46.2945 31.6639 45.3062 31.0177 43.7855 31.0177C42.2266 31.0177 41.238 32.0062 41.238 33.2987C41.238 34.8956 42.2266 35.5421 44.5076 36.5307L45.8382 37.101C50.3627 39.0401 52.9102 41.017 52.9102 45.4653C52.9102 50.2562 49.1462 52.8793 44.0895 52.8793C39.1469 52.8793 35.953 50.5222 34.3944 47.4424" fill="#333333"/>
</g>
<defs>
<clipPath id="clip0_104_36">
<rect width="58" height="58" rx="10" fill="white"/>
</clipPath>
</defs>
</svg>
