<svg width="58" height="58" viewBox="0 0 58 58" fill="none" xmlns="http://www.w3.org/2000/svg">
<path d="M11.905 35.0424H0V23.1422H11.905L5.9525 29.0899L11.905 35.0424Z" fill="url(#paint0_linear_106_46)"/>
<path d="M30.489 26.1268C31.3107 26.1268 32.0944 26.3507 32.7661 26.7246C33.4378 27.0962 33.9618 27.656 34.331 28.3301C34.705 29.0399 34.9289 29.8235 34.9289 30.681C34.9289 31.5385 34.7431 32.3222 34.3692 33.032C33.9952 33.7037 33.4735 34.2635 32.8018 34.6375C32.1301 35.0495 31.3465 35.2353 30.489 35.2353C29.6315 35.2353 28.8478 35.0114 28.1761 34.6375C27.4663 34.2635 26.9446 33.7037 26.5706 33.032C26.1967 32.3603 26.0109 31.5385 26.0109 30.681C26.0109 29.8235 26.1967 29.0399 26.5706 28.3301C26.9446 27.6583 27.5044 27.1367 28.1761 26.7246C28.8478 26.3125 29.6315 26.1268 30.489 26.1268ZM26.311 23.1041L20.8992 28.8874L26.3849 35.0424H23.96L18.7721 29.2947V35.0424H16.869V23.1422H18.7721V28.6278L23.9219 23.1041H26.311ZM30.4556 27.837C29.934 27.837 29.4862 27.9489 29.1122 28.211C28.7382 28.4349 28.4405 28.7707 28.2166 29.2185C27.9927 29.6306 27.8807 30.1523 27.8807 30.712C27.8807 31.2718 27.9546 31.7577 28.1785 32.2055C28.4024 32.6152 28.7001 32.951 29.0741 33.2131C29.4838 33.4751 29.934 33.587 30.4175 33.587C30.901 33.587 31.3488 33.4751 31.7228 33.2131C32.0968 32.9892 32.3945 32.6533 32.6184 32.2055C32.8423 31.7577 32.9543 31.2718 32.9543 30.712C32.9543 30.1523 32.8804 29.6663 32.6565 29.2185C32.4326 28.8088 32.1349 28.473 31.7609 28.211C31.3893 27.9489 30.9415 27.837 30.4556 27.837ZM38.7758 24.1497H36.9464V25.6432C36.9464 25.8671 36.9083 26.0529 36.7606 26.1649C36.6487 26.2768 36.4629 26.3507 36.239 26.3507H35.3434V27.918H36.9107V32.62C36.9107 33.1059 37.0226 33.5537 37.2084 33.9253C37.3942 34.2992 37.6944 34.597 38.0659 34.7828C38.4399 35.0067 38.8496 35.0805 39.3713 35.0805H40.7885V33.4393H39.7428C39.4808 33.4393 39.2569 33.3655 39.0711 33.1416C38.9211 32.9558 38.8091 32.6938 38.8091 32.3961V27.918H40.8242V26.3507H38.8091V24.1497H38.7758ZM42.2463 22.6562H44.1113V35.0424H42.2463V22.6562ZM46.2384 22.6944H48.1416V24.6357H46.2384V22.6944ZM46.2384 26.3507H48.1035V35.0781H46.2384V26.3507ZM57.6218 27.7679C57.3598 27.2463 56.9882 26.8342 56.5022 26.5746C56.0163 26.2768 55.4566 26.1268 54.823 26.1268C54.1513 26.1268 53.5534 26.3125 53.0317 26.6127C52.6221 26.8747 52.2862 27.2463 52.0242 27.6583V26.3149H50.233V35.0424H52.098V30.1523C52.098 29.6663 52.1719 29.2566 52.36 28.8827C52.5458 28.5087 52.8078 28.2491 53.1056 28.0252C53.4414 27.8394 53.8154 27.7274 54.2632 27.7274C54.6729 27.7274 54.973 27.8013 55.2708 27.9894C55.5685 28.1776 55.7567 28.3991 55.9044 28.6993C56.0544 28.997 56.1283 29.371 56.1283 29.7807V35.0043H57.9934V29.5568C58.0338 28.8874 57.8862 28.2919 57.6218 27.7679Z" fill="#333333"/>
<defs>
<linearGradient id="paint0_linear_106_46" x1="11.9039" y1="23.1457" x2="0.00594725" y2="35.0436" gradientUnits="userSpaceOnUse">
<stop offset="0.00343514" stop-color="#E44857"/>
<stop offset="0.4689" stop-color="#C711E1"/>
<stop offset="1" stop-color="#7F52FF"/>
</linearGradient>
</defs>
</svg>
