<svg width="58" height="58" viewBox="0 0 58 58" fill="none" xmlns="http://www.w3.org/2000/svg">
<path fill-rule="evenodd" clip-rule="evenodd" d="M28.6853 46.7307C28.4887 46.7307 28.3051 46.6782 28.1347 46.5865L26.391 45.5507C26.1288 45.4065 26.2599 45.3541 26.3386 45.3279C26.6925 45.2099 26.7581 45.1837 27.1252 44.9739C27.1645 44.9477 27.217 44.9608 27.2563 44.987L28.5935 45.7867C28.646 45.813 28.7115 45.813 28.7509 45.7867L33.9819 42.7582C34.0343 42.732 34.0605 42.6796 34.0605 42.614V36.5702C34.0605 36.5046 34.0343 36.4522 33.9819 36.426L28.7509 33.4106C28.6984 33.3844 28.6329 33.3844 28.5935 33.4106L23.3625 36.426C23.3101 36.4522 23.2839 36.5177 23.2839 36.5702V42.614C23.2839 42.6665 23.3101 42.732 23.3625 42.7582L24.7915 43.5842C25.5651 43.9775 26.0501 43.5186 26.0501 43.0598V37.0946C26.0501 37.0159 26.1157 36.9373 26.2075 36.9373H26.8761C26.9547 36.9373 27.0334 37.0028 27.0334 37.0946V43.0598C27.0334 44.0955 26.4697 44.6986 25.4864 44.6986C25.1849 44.6986 24.9489 44.6986 24.2802 44.3708L22.9037 43.5842C22.5628 43.3875 22.353 43.0205 22.353 42.6271V36.5833C22.353 36.19 22.5628 35.8229 22.9037 35.6262L28.1347 32.5978C28.4624 32.4142 28.9082 32.4142 29.2359 32.5978L34.467 35.6262C34.8078 35.8229 35.0176 36.19 35.0176 36.5833V42.6271C35.0176 43.0205 34.8078 43.3875 34.467 43.5842L29.2359 46.6127C29.0655 46.6913 28.8689 46.7307 28.6853 46.7307ZM30.2979 42.5747C28.0036 42.5747 27.5316 41.5259 27.5316 40.6344C27.5316 40.5557 27.5972 40.4771 27.6889 40.4771H28.3707C28.4493 40.4771 28.5149 40.5295 28.5149 40.6082C28.6198 41.303 28.9213 41.6439 30.311 41.6439C31.4123 41.6439 31.8842 41.3948 31.8842 40.8048C31.8842 40.4639 31.7531 40.2148 30.0357 40.0444C28.6066 39.9002 27.7151 39.5856 27.7151 38.445C27.7151 37.383 28.6066 36.7537 30.1012 36.7537C31.7793 36.7537 32.6053 37.3306 32.7102 38.5892C32.7102 38.6285 32.6971 38.6678 32.6708 38.7072C32.6446 38.7334 32.6053 38.7596 32.566 38.7596H31.8842C31.8187 38.7596 31.7531 38.7072 31.74 38.6416C31.5827 37.9205 31.1763 37.6846 30.1012 37.6846C28.8951 37.6846 28.7509 38.1041 28.7509 38.4187C28.7509 38.7989 28.9213 38.9169 30.547 39.1267C32.1595 39.3365 32.9199 39.638 32.9199 40.7655C32.9068 41.9192 31.9629 42.5747 30.2979 42.5747Z" fill="#539E43"/>
<path fill-rule="evenodd" clip-rule="evenodd" d="M12.4548 23.0928C12.4548 22.8568 12.3237 22.6339 12.1139 22.5159L6.55515 19.317C6.46338 19.2646 6.3585 19.2384 6.25362 19.2253H6.20118C6.09629 19.2253 5.99141 19.2646 5.89964 19.317L0.340868 22.5159C0.131103 22.6339 0 22.8568 0 23.0928L0.0131103 31.6932C0.0131103 31.8111 0.0786619 31.9291 0.183544 31.9816C0.288427 32.0471 0.41953 32.0471 0.511302 31.9816L3.8151 30.0937C4.02487 29.9757 4.15597 29.7528 4.15597 29.5168V25.492C4.15597 25.256 4.28707 25.0331 4.49684 24.9151L5.89964 24.1023C6.00452 24.0367 6.12251 24.0105 6.24051 24.0105C6.3585 24.0105 6.47649 24.0367 6.56827 24.1023L7.97107 24.9151C8.18083 25.0331 8.31194 25.256 8.31194 25.492V29.5168C8.31194 29.7528 8.44304 29.9757 8.65281 30.0937L11.9566 31.9816C12.0615 32.0471 12.1926 32.0471 12.2975 31.9816C12.4024 31.9291 12.4679 31.8111 12.4679 31.6932L12.4548 23.0928Z" fill="#333333"/>
<path fill-rule="evenodd" clip-rule="evenodd" d="M39.1735 11.2542C39.0686 11.2017 38.9375 11.2017 38.8458 11.2542C38.7409 11.3197 38.6753 11.4246 38.6753 11.5426V20.0643C38.6753 20.143 38.636 20.2216 38.5573 20.2741C38.4787 20.3134 38.4 20.3134 38.3214 20.2741L36.9317 19.4743C36.7219 19.3563 36.4728 19.3563 36.263 19.4743L30.7043 22.6864C30.4945 22.8044 30.3634 23.0272 30.3634 23.2632V29.6742C30.3634 29.9101 30.4945 30.133 30.7043 30.251L36.263 33.463C36.4728 33.581 36.7219 33.581 36.9317 33.463L42.4904 30.251C42.7002 30.133 42.8313 29.9101 42.8313 29.6742V13.6927C42.8313 13.4436 42.7002 13.2207 42.4904 13.1027L39.1735 11.2542ZM38.6622 27.5634C38.6622 27.6289 38.636 27.6814 38.5835 27.7076L36.6825 28.8089C36.6301 28.8351 36.5645 28.8351 36.5121 28.8089L34.6111 27.7076C34.5587 27.6814 34.5324 27.6158 34.5324 27.5634V25.3609C34.5324 25.2953 34.5587 25.2429 34.6111 25.2167L36.5121 24.1154C36.5645 24.0892 36.6301 24.0892 36.6825 24.1154L38.5835 25.2167C38.636 25.2429 38.6622 25.3084 38.6622 25.3609V27.5634Z" fill="#333333"/>
<path fill-rule="evenodd" clip-rule="evenodd" d="M57.6722 25.3084C57.882 25.1904 58 24.9676 58 24.7316V23.1715C58 22.9355 57.8689 22.7126 57.6722 22.5946L52.1528 19.3957C51.943 19.2777 51.6939 19.2777 51.4842 19.3957L45.9254 22.6077C45.7156 22.7257 45.5845 22.9486 45.5845 23.1846V29.5955C45.5845 29.8315 45.7156 30.0544 45.9254 30.1724L51.4448 33.3188C51.6546 33.4368 51.9037 33.4368 52.1004 33.3188L55.4435 31.4572C55.5484 31.4047 55.6139 31.2867 55.6139 31.1687C55.6139 31.0508 55.5484 30.9328 55.4435 30.8803L49.8585 27.6683C49.7536 27.6027 49.6881 27.4979 49.6881 27.3799V25.374C49.6881 25.256 49.7536 25.138 49.8585 25.0856L51.6022 24.0892C51.707 24.0236 51.8382 24.0236 51.943 24.0892L53.6867 25.0856C53.7916 25.1511 53.8571 25.256 53.8571 25.374V26.9472C53.8571 27.0652 53.9227 27.1832 54.0276 27.2356C54.1325 27.3012 54.2636 27.3012 54.3684 27.2356L57.6722 25.3084Z" fill="#333333"/>
<path fill-rule="evenodd" clip-rule="evenodd" d="M51.7333 25.0069C51.7726 24.9807 51.825 24.9807 51.8644 25.0069L52.9263 25.6231C52.9656 25.6493 52.9918 25.6886 52.9918 25.7411V26.9734C52.9918 27.0259 52.9656 27.0652 52.9263 27.0914L51.8644 27.7076C51.825 27.7338 51.7726 27.7338 51.7333 27.7076L50.6713 27.0914C50.632 27.0652 50.6058 27.0259 50.6058 26.9734V25.7411C50.6058 25.6886 50.632 25.6493 50.6713 25.6231L51.7333 25.0069Z" fill="#539E43"/>
<path fill-rule="evenodd" clip-rule="evenodd" d="M21.75 19.4219C21.5402 19.3039 21.2911 19.3039 21.0813 19.4219L15.5619 22.6077C15.3521 22.7257 15.2341 22.9486 15.2341 23.1846V29.5693C15.2341 29.8053 15.3652 30.0281 15.5619 30.1461L21.0813 33.3319C21.2911 33.4499 21.5402 33.4499 21.75 33.3319L27.2694 30.1461C27.4792 30.0281 27.5972 29.8053 27.5972 29.5693V23.1846C27.5972 22.9486 27.4661 22.7257 27.2694 22.6077L21.75 19.4219Z" fill="white"/>
<path fill-rule="evenodd" clip-rule="evenodd" d="M21.75 19.4219C21.5402 19.3039 21.2911 19.3039 21.0813 19.4219L15.5619 22.6077C15.3521 22.7257 15.2341 22.9486 15.2341 23.1846V29.5693C15.2341 29.8053 15.3652 30.0281 15.5619 30.1461L21.0813 33.3319C21.2911 33.4499 21.5402 33.4499 21.75 33.3319L27.2694 30.1461C27.4792 30.0281 27.5972 29.8053 27.5972 29.5693V23.1846C27.5972 22.9486 27.4661 22.7257 27.2694 22.6077L21.75 19.4219Z" fill="url(#paint0_linear_104_130)"/>
<mask id="mask0_104_130" style="mask-type:alpha" x="15" y="19" width="13" height="15">
<path fill-rule="evenodd" clip-rule="evenodd" d="M21.75 19.4219C21.5402 19.3039 21.2911 19.3039 21.0813 19.4219L15.5619 22.6077C15.3521 22.7257 15.2341 22.9486 15.2341 23.1846V29.5693C15.2341 29.8053 15.3652 30.0281 15.5619 30.1461L21.0813 33.3319C21.2911 33.4499 21.5402 33.4499 21.75 33.3319L27.2694 30.1461C27.4792 30.0281 27.5972 29.8053 27.5972 29.5693V23.1846C27.5972 22.9486 27.4661 22.7257 27.2694 22.6077L21.75 19.4219Z" fill="white"/>
</mask>
<g mask="url(#mask0_104_130)">
<path fill-rule="evenodd" clip-rule="evenodd" d="M27.2826 22.6077L21.737 19.4219C21.6845 19.3957 21.619 19.3694 21.5665 19.3563L15.3522 30.0019C15.4047 30.0675 15.4702 30.1199 15.5358 30.1592L21.0814 33.345C21.2388 33.4368 21.4223 33.463 21.5927 33.4106L27.4268 22.7388C27.3875 22.6864 27.3351 22.647 27.2826 22.6077Z" fill="url(#paint1_linear_104_130)"/>
</g>
<mask id="mask1_104_130" style="mask-type:alpha" x="15" y="19" width="13" height="15">
<path fill-rule="evenodd" clip-rule="evenodd" d="M21.75 19.4219C21.5402 19.3039 21.2911 19.3039 21.0813 19.4219L15.5619 22.6077C15.3521 22.7257 15.2341 22.9486 15.2341 23.1846V29.5693C15.2341 29.8053 15.3652 30.0281 15.5619 30.1461L21.0813 33.3319C21.2911 33.4499 21.5402 33.4499 21.75 33.3319L27.2694 30.1461C27.4792 30.0281 27.5972 29.8053 27.5972 29.5693V23.1846C27.5972 22.9486 27.4661 22.7257 27.2694 22.6077L21.75 19.4219Z" fill="white"/>
</mask>
<g mask="url(#mask1_104_130)">
<path fill-rule="evenodd" clip-rule="evenodd" d="M27.2956 30.1461C27.4529 30.0544 27.5709 29.897 27.6234 29.7266L21.5402 19.3432C21.3829 19.317 21.2124 19.3301 21.0682 19.4219L15.5619 22.5946L21.5009 33.4237C21.5795 33.4106 21.6713 33.3844 21.75 33.345L27.2956 30.1461Z" fill="url(#paint2_linear_104_130)"/>
<path fill-rule="evenodd" clip-rule="evenodd" d="M27.2956 30.1461L21.7631 33.3319C21.6844 33.3713 21.6057 33.3975 21.514 33.4106L21.6189 33.6072L27.7545 30.0544V29.9757L27.5972 29.7135C27.5709 29.897 27.4529 30.0544 27.2956 30.1461Z" fill="url(#paint3_linear_104_130)"/>
<path fill-rule="evenodd" clip-rule="evenodd" d="M27.2956 30.1461L21.7631 33.3319C21.6844 33.3713 21.6057 33.3975 21.514 33.4106L21.6189 33.6072L27.7545 30.0544V29.9757L27.5972 29.7135C27.5709 29.897 27.4529 30.0544 27.2956 30.1461Z" fill="url(#paint4_linear_104_130)"/>
</g>
<defs>
<linearGradient id="paint0_linear_104_130" x1="20.2235" y1="20.0061" x2="14.3484" y2="27.1161" gradientUnits="userSpaceOnUse">
<stop stop-color="#41873F"/>
<stop offset="0.3288" stop-color="#418B3D"/>
<stop offset="0.6352" stop-color="#419637"/>
<stop offset="0.9319" stop-color="#3FA92D"/>
<stop offset="1" stop-color="#3FAE2A"/>
</linearGradient>
<linearGradient id="paint1_linear_104_130" x1="23.8395" y1="35.0968" x2="38.536" y2="29.2255" gradientUnits="userSpaceOnUse">
<stop offset="0.1376" stop-color="#41873F"/>
<stop offset="0.4032" stop-color="#54A044"/>
<stop offset="0.7136" stop-color="#66B848"/>
<stop offset="0.9081" stop-color="#6CC04A"/>
</linearGradient>
<linearGradient id="paint2_linear_104_130" x1="15.0325" y1="33.8382" x2="27.8042" y2="33.8382" gradientUnits="userSpaceOnUse">
<stop offset="0.0919165" stop-color="#6CC04A"/>
<stop offset="0.2864" stop-color="#66B848"/>
<stop offset="0.5968" stop-color="#54A044"/>
<stop offset="0.8624" stop-color="#41873F"/>
</linearGradient>
<linearGradient id="paint3_linear_104_130" x1="15.0325" y1="35.6555" x2="27.8042" y2="35.6555" gradientUnits="userSpaceOnUse">
<stop offset="0.0919165" stop-color="#6CC04A"/>
<stop offset="0.2864" stop-color="#66B848"/>
<stop offset="0.5968" stop-color="#54A044"/>
<stop offset="0.8624" stop-color="#41873F"/>
</linearGradient>
<linearGradient id="paint4_linear_104_130" x1="13.7162" y1="20.5383" x2="12.5121" y2="36.7452" gradientUnits="userSpaceOnUse">
<stop stop-color="#41873F"/>
<stop offset="0.3288" stop-color="#418B3D"/>
<stop offset="0.6352" stop-color="#419637"/>
<stop offset="0.9319" stop-color="#3FA92D"/>
<stop offset="1" stop-color="#3FAE2A"/>
</linearGradient>
</defs>
</svg>
