<svg width="58" height="58" viewBox="0 0 58 58" fill="none" xmlns="http://www.w3.org/2000/svg">
<path d="M47.6876 19.8975C47.086 19.6904 46.4625 19.4945 45.8206 19.3092C45.9261 18.8786 46.0229 18.4535 46.109 18.0357C47.5224 11.1752 46.5983 5.64826 43.4428 3.82856C40.417 2.08372 35.4687 3.903 30.4711 8.25226C29.9905 8.67048 29.5086 9.11328 29.0268 9.57734C28.7059 9.2703 28.3854 8.97359 28.0658 8.68979C22.8282 4.03928 17.5782 2.07949 14.4258 3.90445C11.403 5.65435 10.5078 10.8502 11.78 17.352C11.9029 17.98 12.0465 18.6213 12.2089 19.2734C11.4659 19.4843 10.7485 19.7091 10.0622 19.9483C3.92164 22.0892 0 25.4445 0 28.9248C0 32.5193 4.20989 36.1246 10.6058 38.3107C11.1105 38.4832 11.6342 38.6463 12.174 38.8012C11.9988 39.5064 11.8464 40.1975 11.7185 40.8715C10.5054 47.2605 11.4527 52.3335 14.4675 54.0724C17.5815 55.8682 22.8077 54.0223 27.8967 49.574C28.2989 49.2223 28.7026 48.8494 29.107 48.4586C29.6311 48.9633 30.1544 49.441 30.675 49.8891C35.6042 54.1308 40.4727 55.8437 43.4847 54.1C46.5956 52.2991 47.6066 46.8494 46.294 40.2189C46.1938 39.7126 46.0771 39.1952 45.9461 38.6687C46.3131 38.5602 46.6734 38.4482 47.0247 38.3317C53.6739 36.1287 58 32.5673 58 28.9248C58 25.4319 53.9519 22.054 47.6876 19.8975ZM46.2455 35.9798C45.9283 36.0848 45.6029 36.1863 45.2713 36.2847C44.5373 33.9609 43.5466 31.4899 42.3343 28.9369C43.4912 26.4447 44.4436 24.0052 45.157 21.6965C45.7504 21.8682 46.3262 22.0493 46.8811 22.2404C52.2483 24.088 55.5223 26.8198 55.5223 28.9248C55.5223 31.1669 51.9865 34.0776 46.2455 35.9798ZM43.8633 40.7001C44.4438 43.632 44.5267 46.2828 44.1422 48.355C43.7968 50.217 43.1021 51.4585 42.2431 51.9557C40.4153 53.0137 36.5064 51.6384 32.2909 48.0108C31.8076 47.595 31.3208 47.1509 30.8325 46.681C32.4668 44.8936 34.1001 42.8157 35.6942 40.508C38.4981 40.2592 41.1471 39.8524 43.5494 39.2971C43.6677 39.7744 43.7728 40.2425 43.8633 40.7001ZM19.7735 51.7729C17.9877 52.4035 16.5654 52.4216 15.7056 51.9259C13.8761 50.8707 13.1155 46.7975 14.153 41.3336C14.2718 40.7079 14.4132 40.0651 14.5762 39.4081C16.9522 39.9335 19.5818 40.3116 22.3924 40.5394C23.9972 42.7976 25.6778 44.8732 27.3713 46.6906C27.0013 47.0478 26.6327 47.3879 26.2662 47.7083C24.0159 49.6753 21.7609 51.0709 19.7735 51.7729ZM11.4071 35.9661C8.57897 34.9995 6.24339 33.7432 4.64246 32.3722C3.20393 31.1403 2.47764 29.9172 2.47764 28.9248C2.47764 26.8128 5.62633 24.119 10.8778 22.288C11.515 22.0659 12.182 21.8565 12.8742 21.6598C13.6 24.0207 14.5521 26.4891 15.701 28.9851C14.5372 31.5182 13.5716 34.0258 12.8387 36.4144C12.3452 36.2725 11.8671 36.1232 11.4071 35.9661ZM14.2116 16.8761C13.1216 11.3056 13.8455 7.10331 15.6672 6.04883C17.6076 4.92548 21.8983 6.52713 26.4206 10.5426C26.7096 10.7993 26.9998 11.0679 27.2909 11.3458C25.6057 13.1553 23.9406 15.2153 22.3499 17.4602C19.6222 17.713 17.011 18.1191 14.6103 18.663C14.4594 18.0559 14.3257 17.4593 14.2116 16.8761ZM39.2302 23.0539C38.6563 22.0626 38.0671 21.0947 37.4664 20.1533C39.317 20.3872 41.09 20.6978 42.7551 21.0778C42.2552 22.6798 41.6321 24.3549 40.8987 26.0721C40.3726 25.0732 39.8162 24.0661 39.2302 23.0539ZM29.0277 13.1166C30.1705 14.3547 31.315 15.7371 32.4408 17.237C31.3064 17.1834 30.1579 17.1555 29 17.1555C27.853 17.1555 26.713 17.1828 25.5857 17.2354C26.7125 15.7495 27.8669 14.369 29.0277 13.1166ZM18.7598 23.071C18.1865 24.0651 17.6404 25.0667 17.1225 26.0702C16.401 24.359 15.7837 22.6763 15.2795 21.0516C16.9343 20.6812 18.699 20.3784 20.5378 20.1489C19.9287 21.099 19.3346 22.074 18.7598 23.0708V23.071ZM20.5908 37.8774C18.6909 37.6654 16.8997 37.3782 15.2453 37.0181C15.7576 35.3643 16.3885 33.6457 17.1253 31.8977C17.6445 32.9004 18.1928 33.9025 18.7696 34.8987H18.7697C19.3573 35.9137 19.966 36.9079 20.5908 37.8774ZM29.0962 44.9077C27.9219 43.6406 26.7505 42.239 25.6065 40.7314C26.7171 40.775 27.8493 40.7973 29 40.7973C30.1822 40.7973 31.3509 40.7707 32.5012 40.7194C31.3717 42.2542 30.2313 43.6579 29.0962 44.9077ZM40.9224 31.8086C41.6976 33.5755 42.3511 35.2851 42.87 36.9107C41.1883 37.2944 39.3727 37.6034 37.4596 37.833C38.0617 36.8788 38.6561 35.8944 39.2401 34.8817C39.8309 33.8571 40.3919 32.831 40.9224 31.8086ZM37.0938 33.6438C36.1872 35.2159 35.2564 36.7166 34.3115 38.1331C32.5904 38.2562 30.8123 38.3195 29 38.3195C27.1951 38.3195 25.4394 38.2635 23.7487 38.1537C22.7657 36.7186 21.8147 35.2135 20.9138 33.6574H20.914C20.0155 32.1055 19.1886 30.5405 18.4392 28.9842C19.1884 27.4244 20.0131 25.8576 20.9065 24.3085L20.9063 24.3089C21.802 22.7556 22.7446 21.2578 23.7186 19.8317C25.4435 19.7013 27.2123 19.6333 28.9999 19.6333H29C30.7956 19.6333 32.5667 19.7018 34.2911 19.8333C35.2502 21.249 36.1865 22.742 37.0857 24.2954C37.9951 25.8663 38.8305 27.4226 39.586 28.949C38.8328 30.5017 37.9993 32.0737 37.0938 33.6438ZM42.2051 5.97511C44.1474 7.09516 44.9027 11.6123 43.6824 17.5356C43.6045 17.9136 43.5169 18.2986 43.4217 18.6887C41.0154 18.1335 38.4024 17.7203 35.6667 17.4637C34.073 15.1942 32.4215 13.1309 30.7637 11.3447C31.2094 10.9159 31.6545 10.5071 32.0977 10.1213C36.3796 6.39489 40.3817 4.92362 42.2051 5.97511ZM29 23.7456C31.8603 23.7456 34.1792 26.0643 34.1792 28.9248C34.1792 31.7851 31.8603 34.104 29 34.104C26.1397 34.104 23.8208 31.7851 23.8208 28.9248C23.8208 26.0643 26.1397 23.7456 29 23.7456Z" fill="#00D8FF"/>
</svg>
