<svg width="40" height="40" viewBox="0 0 40 40" fill="none" xmlns="http://www.w3.org/2000/svg">
<rect width="40" height="40" rx="20" fill="#CF3034"/>
<path d="M20 11.6667C18.7217 11.6666 17.4606 11.9606 16.3141 12.5259C15.1677 13.0913 14.1666 13.9127 13.3885 14.9268C12.6103 15.9409 12.0758 17.1205 11.8264 18.3742C11.5771 19.6279 11.6194 20.9221 11.9503 22.1568C12.2811 23.3916 12.8916 24.5336 13.7344 25.4946C14.5772 26.4557 15.6298 27.2099 16.8108 27.6991C17.9918 28.1882 19.2695 28.3991 20.545 28.3155C21.8205 28.2318 23.0597 27.8558 24.1667 27.2167C24.2663 27.1646 24.3543 27.0929 24.4254 27.0059C24.4966 26.9189 24.5494 26.8184 24.5807 26.7104C24.6121 26.6025 24.6212 26.4893 24.6077 26.3778C24.5941 26.2662 24.5581 26.1585 24.5019 26.0612C24.4456 25.9639 24.3703 25.879 24.2804 25.8116C24.1905 25.7441 24.0878 25.6956 23.9787 25.6688C23.8695 25.6421 23.7561 25.6377 23.6452 25.656C23.5343 25.6742 23.4282 25.7147 23.3333 25.775C22.0624 26.5087 20.585 26.8027 19.13 26.6111C17.6751 26.4196 16.324 25.7534 15.2862 24.7158C14.2485 23.6782 13.5821 22.3271 13.3904 20.8722C13.1988 19.4173 13.4925 17.9398 14.2261 16.6688C14.9597 15.3978 16.0922 14.4044 17.4479 13.8426C18.8036 13.2809 20.3068 13.1821 21.7244 13.5617C23.1419 13.9413 24.3946 14.778 25.2882 15.942C26.1818 17.1061 26.6663 18.5325 26.6667 20V20.625C26.6667 21.0118 26.513 21.3827 26.2395 21.6562C25.966 21.9297 25.5951 22.0833 25.2083 22.0833C24.8216 22.0833 24.4506 21.9297 24.1771 21.6562C23.9037 21.3827 23.75 21.0118 23.75 20.625V17.0833C23.75 16.8623 23.6622 16.6503 23.5059 16.4941C23.3496 16.3378 23.1377 16.25 22.9167 16.25C22.7229 16.2457 22.5337 16.3091 22.3816 16.4292C22.2295 16.5494 22.124 16.7188 22.0833 16.9083C21.4708 16.4846 20.7448 16.2552 20 16.25C19.3726 16.2425 18.7534 16.3925 18.1991 16.6863C17.6447 16.9801 17.1729 17.4083 16.8269 17.9317C16.4809 18.4551 16.2718 19.0569 16.2186 19.6821C16.1655 20.3072 16.27 20.9357 16.5227 21.51C16.7754 22.0843 17.1681 22.586 17.6649 22.9691C18.1618 23.3523 18.7468 23.6047 19.3664 23.7032C19.986 23.8017 20.6205 23.7432 21.2116 23.533C21.8027 23.3228 22.3317 22.9676 22.75 22.5C23.146 23.0128 23.6919 23.3894 24.3118 23.5775C24.9317 23.7656 25.5949 23.7559 26.209 23.5497C26.8231 23.3434 27.3578 22.9509 27.7385 22.4268C28.1192 21.9026 28.3271 21.2728 28.3333 20.625V20C28.3333 18.9056 28.1178 17.822 27.699 16.811C27.2802 15.7999 26.6664 14.8813 25.8926 14.1074C25.1187 13.3336 24.2001 12.7198 23.189 12.301C22.178 11.8822 21.0944 11.6667 20 11.6667ZM20 22.0833C19.588 22.0833 19.1852 21.9611 18.8426 21.7322C18.5 21.5033 18.2329 21.1779 18.0753 20.7972C17.9176 20.4166 17.8763 19.9977 17.9567 19.5936C18.0371 19.1894 18.2355 18.8182 18.5269 18.5269C18.8182 18.2355 19.1894 18.0371 19.5936 17.9567C19.9977 17.8763 20.4166 17.9176 20.7973 18.0752C21.1779 18.2329 21.5033 18.5 21.7322 18.8426C21.9612 19.1852 22.0833 19.5879 22.0833 20C22.0833 20.5525 21.8638 21.0824 21.4731 21.4731C21.0824 21.8638 20.5525 22.0833 20 22.0833Z" fill="white"/>
</svg>
