<svg width="40" height="40" viewBox="0 0 40 40" fill="none" xmlns="http://www.w3.org/2000/svg">
<rect width="40" height="40" rx="20" fill="#CF3034"/>
<path fill-rule="evenodd" clip-rule="evenodd" d="M20 10C16.13 10 13 13.13 13 17C13 22.25 20 30 20 30C20 30 27 22.25 27 17C27 13.13 23.87 10 20 10ZM15 17C15 14.24 17.24 12 20 12C22.76 12 25 14.24 25 17C25 19.88 22.12 24.19 20 26.88C17.92 24.21 15 19.85 15 17ZM17.5 17C17.5 15.6193 18.6193 14.5 20 14.5C20.8932 14.5 21.7185 14.9765 22.1651 15.75C22.6116 16.5235 22.6116 17.4765 22.1651 18.25C21.7185 19.0235 20.8932 19.5 20 19.5C18.6193 19.5 17.5 18.3807 17.5 17Z" fill="white"/>
</svg>
