<svg width="40" height="40" viewBox="0 0 40 40" fill="none" xmlns="http://www.w3.org/2000/svg">
<rect width="40" height="40" rx="20" fill="#CF3034"/>
<path d="M18.1543 31.2793C18.0723 31.3555 18.0078 31.4727 18.0078 31.543C18.0078 31.6074 18.0723 31.7305 18.1543 31.8066L18.2949 31.9531H20H21.7051L21.8457 31.8066C21.9277 31.7305 21.9922 31.6074 21.9922 31.543C21.9922 31.4785 21.9277 31.3555 21.8457 31.2793L21.7051 31.1328H20H18.2949L18.1543 31.2793Z" fill="white"/>
<path d="M13.0684 6.14844C12.875 6.20703 12.6816 6.33594 12.4707 6.54101C11.9258 7.07422 11.9727 5.78516 11.9727 20C11.9727 33.998 11.9375 32.9023 12.3887 33.3887C12.5234 33.5293 12.752 33.7051 12.8984 33.7812L13.1738 33.916H20H26.8262L27.1016 33.7812C27.2481 33.7051 27.4766 33.5293 27.6113 33.3887C28.0625 32.9023 28.0274 33.998 28.0274 20C28.0274 5.78516 28.0742 7.07422 27.5293 6.54101C26.9961 6.01953 27.5234 6.05469 19.9766 6.06054C14.293 6.06054 13.3086 6.07812 13.0684 6.14844ZM16.3672 7.73633C16.5957 8.21094 16.8359 8.66211 16.9063 8.73242L17.0293 8.86719H20H22.9707L23.0938 8.73242C23.1641 8.66211 23.4043 8.21094 23.6328 7.73633L24.043 6.875H25.2734C26.6094 6.875 26.7617 6.9043 27.0313 7.19727L27.1777 7.35547V20V32.6445L27.0313 32.8027C26.7207 33.1426 27.0547 33.125 20 33.125C12.9453 33.125 13.2793 33.1426 12.9688 32.8027L12.8223 32.6445V20V7.35547L12.9688 7.19727C13.2383 6.9043 13.3672 6.88086 14.7148 6.875H15.957L16.3672 7.73633ZM23.1055 6.89844C23.1055 6.91016 22.9824 7.17383 22.8359 7.48438L22.5606 8.04688H20H17.4395L17.1641 7.48438C17.0176 7.17383 16.8945 6.91016 16.8945 6.89844C16.8945 6.88672 18.2949 6.875 20 6.875C21.7109 6.875 23.1055 6.88672 23.1055 6.89844Z" fill="white"/>
</svg>
